<?xml version="1.0" standalone="no"?>
<!DOCTYPE svg PUBLIC "-//W3C//DTD SVG 20010904//EN"
 "http://www.w3.org/TR/2001/REC-SVG-20010904/DTD/svg10.dtd">
<svg version="1.0" xmlns="http://www.w3.org/2000/svg"
 width="512.000000pt" height="512.000000pt" viewBox="0 0 512.000000 512.000000"
 preserveAspectRatio="xMidYMid meet">
<metadata>
Created by potrace 1.14, written by Peter Selinger 2001-2017
</metadata>
<g transform="translate(0.000000,512.000000) scale(0.100000,-0.100000)"
fill="#000000" stroke="none">
<path d="M618 5110 c-73 -13 -145 -38 -233 -83 -61 -31 -101 -62 -167 -129
-75 -75 -94 -101 -137 -190 -27 -57 -55 -128 -63 -158 -11 -45 -13 -407 -13
-1995 l0 -1940 23 -75 c43 -136 97 -226 194 -322 75 -75 101 -94 190 -137 57
-27 128 -55 158 -63 45 -11 407 -13 1995 -13 l1940 0 75 23 c136 43 226 97
322 194 75 75 94 101 137 190 27 57 55 128 63 158 11 45 13 407 13 1995 l0
1940 -23 75 c-43 135 -97 226 -193 322 -71 71 -104 94 -180 132 -179 89 38 80
-2129 82 -1059 1 -1946 -2 -1972 -6z m3906 -160 c110 -28 190 -74 271 -155 81
-81 127 -161 155 -271 20 -76 20 -118 20 -1964 0 -1846 0 -1888 -20 -1964 -28
-110 -74 -190 -155 -271 -81 -81 -161 -127 -271 -155 -76 -20 -118 -20 -1964
-20 -1846 0 -1888 0 -1964 20 -110 28 -190 74 -271 155 -81 81 -127 161 -155
271 -20 76 -20 118 -20 1964 0 1846 0 1888 20 1964 28 110 74 190 155 271 80
80 161 127 267 155 71 18 135 19 1964 19 1851 1 1892 1 1968 -19z"/>
<path d="M2410 4445 l0 -185 150 0 150 0 0 185 0 185 -150 0 -150 0 0 -185z"/>
<path d="M2410 3595 l0 -375 150 0 150 0 0 375 0 375 -150 0 -150 0 0 -375z"/>
<path d="M700 2560 l0 -1365 679 679 680 680 -579 585 c-318 322 -624 631
-679 686 l-101 100 0 -1365z m887 -58 c-28 -30 -172 -171 -319 -314 l-268
-260 0 633 0 634 320 -320 320 -320 -53 -53z"/>
<path d="M3728 3239 l-677 -684 677 -678 677 -677 3 680 c1 374 1 987 0 1362
l-3 681 -677 -684z m380 -993 l-3 -315 -313 307 c-172 169 -313 311 -312 317
0 5 141 151 313 323 l312 312 3 -315 c1 -173 1 -456 0 -629z"/>
<path d="M2410 2565 l0 -375 150 0 150 0 0 375 0 375 -150 0 -150 0 0 -375z"/>
<path d="M2410 1535 l0 -375 150 0 150 0 0 375 0 375 -150 0 -150 0 0 -375z"/>
<path d="M2410 685 l0 -185 150 0 150 0 0 185 0 185 -150 0 -150 0 0 -185z"/>
</g>
</svg>
